<svg xmlns="http://www.w3.org/2000/svg" viewBox="2345 -617 30 30">
  <defs>
    <style>
      .cls-1 {
        fill: #fff;
      }

      .cls-2 {
        fill: none;
      }
    </style>
  </defs>
  <g id="menu_feed" transform="translate(2345 -617)">
    <g id="menu_feed-2" data-name="menu_feed" transform="translate(50 1.922)">
      <path id="패스_216" data-name="패스 216" class="cls-1" d="M17.758,21.055A17.808,17.808,0,0,0,1.034,4.3,1.082,1.082,0,0,1,.01,3.218V1.161A1.084,1.084,0,0,1,1.158.08,22.068,22.068,0,0,1,22,20.95a1.085,1.085,0,0,1-1.082,1.129H18.849A1.091,1.091,0,0,1,17.758,21.055Zm-4.346,1.014H11.334a1.091,1.091,0,0,1-1.082-.995,10.256,10.256,0,0,0-2.977-6.3A10.2,10.2,0,0,0,.986,11.8,1.083,1.083,0,0,1,0,10.716V8.66A1.081,1.081,0,0,1,1.158,7.579,14.556,14.556,0,0,1,14.484,20.912,1.068,1.068,0,0,1,13.412,22.069ZM2.929,16.2A2.927,2.927,0,1,1,0,19.123,2.936,2.936,0,0,1,2.929,16.2Z" transform="translate(-46 2)"/>
    </g>
    <rect id="사각형_105" data-name="사각형 105" class="cls-2" width="30" height="30"/>
  </g>
</svg>
