<svg xmlns="http://www.w3.org/2000/svg" viewBox="2345 -617 30 30">
  <defs>
    <style>
      .cls-1 {
        fill: none;
      }

      .cls-2 {
        fill: #fff;
      }
    </style>
  </defs>
  <g id="그룹_119" data-name="그룹 119" transform="translate(2345 -617)">
    <rect id="사각형_105" data-name="사각형 105" class="cls-1" width="30" height="30"/>
    <g id="menu_user" transform="translate(-369 -53)">
      <path id="패스_105" data-name="패스 105" class="cls-2" d="M74.182,25.875c0-.6-.622-1.513-3.11-2.392-2.46-.88-3.28-1.622-3.28-3.19,0-.963.763-.632,1.074-2.393.141-.715.792,0,.933-1.677,0-.66-.368-.825-.368-.825a16.3,16.3,0,0,0,.254-1.733c.085-.935-.566-3.465-3.987-3.465s-4.072,2.53-3.987,3.465c.085.742.254,1.733.254,1.733a.564.564,0,0,0-.254.275,3.123,3.123,0,0,1-.113.495v.055c.141,1.65.792.935.933,1.677.339,1.733,1.074,1.43,1.074,2.393a2.394,2.394,0,0,1-.82,1.98c2.941,1.182,4.411,2.722,4.411,4.593v1.1h6.927A19.631,19.631,0,0,0,74.182,25.875Z" transform="translate(324.818 47.605)"/>
      <path id="패스_104" data-name="패스 104" class="cls-2" d="M17.107,16.472c-3.082-1.1-4.072-2.007-4.072-3.987,0-1.183.933-.8,1.357-2.97.17-.908.99,0,1.159-2.063,0-.825-.452-1.018-.452-1.018s.226-1.21.311-2.145C15.551,3.135,14.731,0,10.462,0S5.4,3.135,5.514,4.29c.085.935.311,2.145.311,2.145s-.452.193-.452,1.017c.17,2.062.99,1.155,1.159,2.062.4,2.173,1.357,1.788,1.357,2.97,0,1.98-.99,2.888-4.072,3.987C.735,17.545,0,18.673,0,19.443V22H20.952V19.443C20.952,18.673,20.189,17.545,17.107,16.472Z" transform="translate(369 57)"/>
    </g>
  </g>
</svg>
